# xmcd
#
# Track frame offsets:
#	150
#	16858
#	38059
#	54032
#	70645
#	96800
#	110813
#	128232
#	141833
#	156044
#	175509
#	188211
#	206597
#	227750
#
# Disc length: 3331 seconds
#
# Revision: 1
# Processed by: cddbd v1.5.2PL0 Copyright (c) Steve Scherf et al.
# Submitted via: audiograbber 1.83.01
#
DISCID=b10d010e
DTITLE=Percy Sledge - My Old Friend The Blues
DYEAR=2009
DGENRE=
TTITLE0=Shining Through The Rain
TTITLE1=Lonely Hobo Lullaby
TTITLE2=24-7-365
TTITLE3=Love Come Rescue Me
TTITLE4=Misty Morning
TTITLE5=A Lonely Violin
TTITLE6=Big Blue Diamonds
TTITLE7=My Old Friend The Blues
TTITLE8=Rubies And Diamonds
TTITLE9=Change My Mind
TTITLE10=Searching For My Love
TTITLE11=Fall Inside Your Eyes
TTITLE12=Road Of No Return
TTITLE13=Honest As Daylight (bonus track)
EXTD=
EXTT0=
EXTT1=
EXTT2=
EXTT3=
EXTT4=
EXTT5=
EXTT6=
EXTT7=
EXTT8=
EXTT9=
EXTT10=
EXTT11=
EXTT12=
EXTT13=
PLAYORDER=
